<svg width="22" height="22" viewBox="0 0 22 22" fill="none" xmlns="http://www.w3.org/2000/svg">
<path fill-rule="evenodd" clip-rule="evenodd" d="M4.87167 9.8647C7.54684 5.12157 8.88442 2.75 11.0026 2.75C13.1208 2.75 14.4584 5.12157 17.1335 9.8647L17.4669 10.4557C19.6899 14.3973 20.8015 16.368 19.7969 17.809C18.7923 19.25 16.3068 19.25 11.336 19.25H10.6692C5.69837 19.25 3.21293 19.25 2.20834 17.809C1.20375 16.368 2.31527 14.3973 4.53832 10.4557L4.87167 9.8647ZM11.0026 6.64583C11.3823 6.64583 11.6901 6.95364 11.6901 7.33333V11.9167C11.6901 12.2964 11.3823 12.6042 11.0026 12.6042C10.6229 12.6042 10.3151 12.2964 10.3151 11.9167V7.33333C10.3151 6.95364 10.6229 6.64583 11.0026 6.64583ZM11.0026 15.5833C11.5089 15.5833 11.9193 15.1729 11.9193 14.6667C11.9193 14.1604 11.5089 13.75 11.0026 13.75C10.4963 13.75 10.0859 14.1604 10.0859 14.6667C10.0859 15.1729 10.4963 15.5833 11.0026 15.5833Z" fill="white"/>
</svg>
