<svg
  width="24"
  height="24"
  viewBox="0 0 24 24"
  fill="none"
  xmlns="http://www.w3.org/2000/svg"
>
<path
    d="M2.47109 14.3854C3.57322 15.1908 3.99339 15.304 4.91544 16.5185C6.42274 18.5061 6.20098 19.3277 6.64783 19.7061C7.09468 20.0846 9.14387 20.3902 10.5411 18.6614C11.9384 16.9325 14.1176 12.16 16.9121 9.29751C19.7066 6.43497 21.0105 5.60694 21.8475 5.17352C22.6862 4.74171 20.0301 4.83389 14.8062 8.84791C11.1731 11.6393 8.60365 15.4932 8.60365 15.4932C8.60365 15.4932 7.87668 13.3859 6.256 11.9821C4.63533 10.5768 0.640328 13.0495 2.46942 14.387L2.47109 14.3854Z"
    fill="#ffffff"
  />
</svg>
