<svg
  width="25"
  height="24"
  viewBox="0 0 25 24"
  fill="none"
  xmlns="http://www.w3.org/2000/svg"
>
<path
    fill-rule="evenodd"
    clip-rule="evenodd"
    d="M10.4436 3.25H14.5564C16.3942 3.24998 17.8498 3.24997 18.989 3.40314C20.1614 3.56076 21.1104 3.89288 21.8588 4.64124C22.6071 5.38961 22.9392 6.33856 23.0969 7.51098C23.25 8.65019 23.25 10.1058 23.25 11.9436V12.0564C23.25 13.8942 23.25 15.3498 23.0969 16.489C22.9392 17.6614 22.6071 18.6104 21.8588 19.3588C21.1104 20.1071 20.1614 20.4392 18.989 20.5969C17.8498 20.75 16.3942 20.75 14.5564 20.75H10.4436C8.60583 20.75 7.15019 20.75 6.01098 20.5969C4.83856 20.4392 3.88961 20.1071 3.14124 19.3588C2.39288 18.6104 2.06076 17.6614 1.90314 16.489C1.74997 15.3498 1.74998 13.8942 1.75 12.0564V11.9436C1.74998 10.1058 1.74997 8.65019 1.90314 7.51098C2.06076 6.33856 2.39288 5.38961 3.14124 4.64124C3.88961 3.89288 4.83856 3.56076 6.01098 3.40314C7.15019 3.24997 8.60582 3.24998 10.4436 3.25ZM6.21085 4.88976C5.20476 5.02502 4.62511 5.27869 4.2019 5.7019C3.77869 6.12511 3.52502 6.70476 3.38976 7.71085C3.25159 8.73851 3.25 10.0932 3.25 12C3.25 13.9068 3.25159 15.2615 3.38976 16.2892C3.52502 17.2952 3.77869 17.8749 4.2019 18.2981C4.62511 18.7213 5.20476 18.975 6.21085 19.1102C7.23851 19.2484 8.59318 19.25 10.5 19.25H14.5C16.4068 19.25 17.7615 19.2484 18.7892 19.1102C19.7952 18.975 20.3749 18.7213 20.7981 18.2981C21.2213 17.8749 21.475 17.2952 21.6102 16.2892C21.7484 15.2615 21.75 13.9068 21.75 12C21.75 10.0932 21.7484 8.73851 21.6102 7.71085C21.475 6.70476 21.2213 6.12511 20.7981 5.7019C20.3749 5.27869 19.7952 5.02502 18.7892 4.88976C17.7615 4.75159 16.4068 4.75 14.5 4.75H10.5C8.59318 4.75 7.23851 4.75159 6.21085 4.88976ZM5.92383 7.51986C6.18901 7.20165 6.66193 7.15866 6.98014 7.42383L9.13903 9.22291C10.072 10.0004 10.7197 10.5384 11.2666 10.8901C11.7959 11.2306 12.1549 11.3449 12.5 11.3449C12.8451 11.3449 13.2041 11.2306 13.7334 10.8901C14.2803 10.5384 14.928 10.0004 15.861 9.22291L18.0199 7.42383C18.3381 7.15866 18.811 7.20165 19.0762 7.51986C19.3413 7.83807 19.2983 8.31099 18.9801 8.57617L16.7836 10.4066C15.8973 11.1452 15.1789 11.7439 14.5448 12.1517C13.8843 12.5765 13.2411 12.8449 12.5 12.8449C11.7589 12.8449 11.1157 12.5765 10.4552 12.1517C9.82112 11.7439 9.10272 11.1452 8.21636 10.4066L6.01986 8.57617C5.70165 8.31099 5.65866 7.83807 5.92383 7.51986Z"
    fill="url(#paint0_linear_10766_60882)"
  />
<defs>
<linearGradient
      id="paint0_linear_10766_60882"
      x1="12.4687"
      y1="3.25"
      x2="11.6612"
      y2="21.9845"
      gradientUnits="userSpaceOnUse"
    >
<stop stop-color="#492E5E" />
<stop offset="1" stop-color="#221A33" />
</linearGradient>
</defs>
</svg>
