<svg
  width="345"
  height="24"
  viewBox="0 0 345 24"
  fill="none"
  xmlns="http://www.w3.org/2000/svg"
>
<path
    d="M121 12H1"
    stroke="url(#paint0_linear_10179_146688)"
    stroke-linecap="round"
  />
<path
    d="M167.032 19.224C163.992 19.224 161.896 16.872 161.896 13.064C161.896 9.272 163.992 7.016 167.032 7.016C170.056 7.016 172.152 9.272 172.152 13.064C172.152 16.872 170.056 19.224 167.032 19.224ZM167.032 17.592C168.984 17.592 170.248 15.816 170.248 13.064C170.248 10.312 168.984 8.632 167.032 8.632C165.064 8.632 163.816 10.312 163.816 13.064C163.816 15.816 165.064 17.592 167.032 17.592ZM174.599 19V7.224H178.455C180.887 7.224 182.711 8.088 182.711 10.648C182.711 13.112 180.887 14.248 178.455 14.248H176.471V19H174.599ZM176.471 12.76H178.247C179.943 12.76 180.871 12.056 180.871 10.648C180.871 9.224 179.943 8.728 178.247 8.728H176.471V12.76ZM181.047 19L178.103 13.768L179.479 12.68L183.127 19H181.047Z"
    fill="#52525B"
  />
<path
    d="M224 12H344"
    stroke="url(#paint1_linear_10179_146688)"
    stroke-linecap="round"
  />
<defs>
<linearGradient
      id="paint0_linear_10179_146688"
      x1="31.5"
      y1="12"
      x2="121"
      y2="12"
      gradientUnits="userSpaceOnUse"
    >
<stop stop-opacity="0" />
<stop offset="1" stop-color="#595987" />
</linearGradient>
<linearGradient
      id="paint1_linear_10179_146688"
      x1="313.5"
      y1="12"
      x2="224"
      y2="12"
      gradientUnits="userSpaceOnUse"
    >
<stop stop-opacity="0" />
<stop offset="1" stop-color="#595987" />
</linearGradient>
</defs>
</svg>
