<svg
  width="28"
  height="28"
  viewBox="0 0 28 28"
  fill="none"
  xmlns="http://www.w3.org/2000/svg"
>
<path
    d="M22.7943 5.20569L23.5014 4.49859H23.5014L22.7943 5.20569ZM24.5356 6.94697L25.5356 6.95199C25.5328 7.50035 25.089 7.9442 24.5406 7.94695L24.5356 6.94697ZM21.0405 7.96454C20.4882 7.96732 20.0382 7.52186 20.0355 6.96958C20.0327 6.4173 20.4781 5.96734 21.0304 5.96457L21.0405 7.96454ZM23.5532 3.44181C23.556 2.88953 24.0059 2.44407 24.5582 2.44685C25.1105 2.44962 25.5559 2.89958 25.5532 3.45186L23.5532 3.44181ZM25.2694 12.325C25.1944 11.7779 25.5771 11.2735 26.1243 11.1985C26.6715 11.1235 27.1758 11.5063 27.2508 12.0534L25.2694 12.325ZM4.58653 4.58653C9.8273 -0.654238 18.2958 -0.707014 23.5014 4.49859L22.0872 5.9128C17.676 1.50162 10.4739 1.52759 6.00074 6.00074L4.58653 4.58653ZM23.4135 23.4135C18.1727 28.6542 9.70419 28.707 4.49859 23.5014L5.9128 22.0872C10.324 26.4984 17.5261 26.4724 21.9993 21.9993L23.4135 23.4135ZM4.49859 23.5014C-0.707012 18.2958 -0.654242 9.8273 4.58653 4.58653L6.00074 6.00074C1.52759 10.4739 1.50162 17.676 5.9128 22.0872L4.49859 23.5014ZM23.5014 4.49859L25.2427 6.23986L23.8285 7.65407L22.0872 5.9128L23.5014 4.49859ZM24.5406 7.94695L21.0405 7.96454L21.0304 5.96457L24.5306 5.94698L24.5406 7.94695ZM23.5356 6.94194L23.5532 3.44181L25.5532 3.45186L25.5356 6.95199L23.5356 6.94194ZM27.2508 12.0534C27.8015 16.071 26.5191 20.3078 23.4135 23.4135L21.9993 21.9993C24.6472 19.3513 25.7381 15.7448 25.2694 12.325L27.2508 12.0534Z"
    fill="url(#paint0_linear_10179_145848)"
  />
<defs>
<linearGradient
      id="paint0_linear_10179_145848"
      x1="14.0361"
      y1="1.625"
      x2="15.4377"
      y2="28.0959"
      gradientUnits="userSpaceOnUse"
    >
<stop stop-color="#F89E83" />
<stop offset="1" stop-color="#221A33" />
</linearGradient>
</defs>
</svg>
